<?xml version="1.0" encoding="utf-8"?>
<!-- Generator: Adobe Illustrator 17.0.0, SVG Export Plug-In . SVG Version: 6.00 Build 0)  -->
<!DOCTYPE svg PUBLIC "-//W3C//DTD SVG 1.1//EN" "http://www.w3.org/Graphics/SVG/1.1/DTD/svg11.dtd">
<svg version="1.1" id="Layer_1" xmlns="http://www.w3.org/2000/svg" xmlns:xlink="http://www.w3.org/1999/xlink" x="0px" y="0px"
	 width="559.623px" height="568.205px" viewBox="0 0 559.623 568.205" enable-background="new 0 0 559.623 568.205"
	 xml:space="preserve">
<path fill="none" stroke="#2B2A29" stroke-width="4.252" stroke-miterlimit="22.9256" d="M2.367,36.25L7.18,11.429
	C7.766,8.995,8.352,6.56,9.979,5.343c1.626-1.217,4.293-1.217,6.96-1.217H542.11c2.89,0,5.78,0,7.448,1.333
	c1.667,1.333,2.112,4,2.556,6.668l3.238,24.725 M555.496,40.424c0-2.667,0-5.334-1.456-6.668c-1.456-1.333-4.367-1.333-7.277-1.333
	H10.859c-2.911,0-5.822,0-7.277,1.333c-1.456,1.333-1.456,4.001-1.456,6.668"/>
<path fill="none" stroke="#2B2A29" stroke-width="4.252" stroke-miterlimit="22.9256" d="M546.763,566.079
	c2.911,0,5.822,0,7.277-1.334c1.456-1.333,1.456-4,1.456-6.667"/>
<path fill="none" stroke="#2B2A29" stroke-width="4.252" stroke-miterlimit="22.9256" d="M10.859,566.079
	c-2.911,0-5.822,0-7.277-1.334c-1.456-1.333-1.456-4-1.456-6.667"/>
<line fill="none" stroke="#2B2A29" stroke-width="4.252" stroke-miterlimit="22.9256" x1="555.497" y1="40.166" x2="555.496" y2="558.366"/>
<line fill="none" stroke="#2B2A29" stroke-width="4.252" stroke-miterlimit="22.9256" x1="10.309" y1="566.079" x2="547.146" y2="566.079"/>
<line fill="none" stroke="#2B2A29" stroke-width="4.252" stroke-miterlimit="22.9256" x1="2.126" y1="39.787" x2="2.126" y2="558.741"/>
<path fill-rule="evenodd" clip-rule="evenodd" fill="#2B2A29" d="M169.74,490.563l7.553,7.553l19.687-27.442h7.863l-24.552,34.223
	l-2.196,3.06l-2.661-2.661l-14.733-14.734H169.74z M438.596,508.365l19.027-35.307l2.814-5.221l2.804,5.233l18.922,35.307h-7.224
	l-14.511-27.076l-14.592,27.076h-7.217L438.596,508.365z M345.896,467.85l19.027,35.306l2.814,5.221l2.804-5.233l18.922-35.306
	h-7.224l-14.511,27.077l-14.592-27.077h-7.217L345.896,467.85z M256.236,509.891l35.306-19.028l5.221-2.814l-5.233-2.804
	l-35.306-18.922v7.224l27.077,14.511l-27.077,14.592v7.217L256.236,509.891z M110.671,509.891l-35.306-19.028l-5.221-2.814
	l5.233-2.804l35.306-18.922v7.224l-5.44,2.915l-21.637,11.595l21.421,11.544l5.655,3.048v7.217L110.671,509.891z M72.979,111.035
	h412.615c1.559,0,2.835,1.276,2.835,2.835v304.772c0,1.559-1.275,2.835-2.835,2.835H72.979c-1.559,0-2.835-1.276-2.835-2.835V113.87
	C70.144,112.311,71.42,111.035,72.979,111.035z M302.534,65.446c0.155-0.08,0.124-0.211,0.098-0.71
	c-0.055-1.039-1.199-2.248-0.992-3.647c0.032-0.219,0.144-0.423,0.163-0.662c-0.21,0.101-0.401,0.131-0.631,0.255
	c-1.051,0.562-1.729,1.424-2.016,2.59c-0.148,0.601-0.129,0.955-0.129,1.687c0,1.032,0.535,1.798,1.549,1.95
	C301.732,67.081,302.655,65.977,302.534,65.446z M300.503,69.46c0.884,0,1.008,0.042,1.916-0.152c0.329-0.07,0.657-0.202,0.92-0.32
	c3.936-1.764,3.671-7.314,0.892-8.917c-0.351-0.202-1.056-0.527-1.6-0.527c0.157,0.214,2.776,1.183,2.776,3.837
	c0,1.808-1.106,3.526-2.519,4.212c-0.258,0.125-0.524,0.22-0.81,0.312c-0.326,0.106-0.581,0.109-0.958,0.166
	c-0.589,0.089-1.444-0.118-1.892-0.287c-0.563-0.213-0.984-0.49-1.368-0.876c-1.501-1.509-1.622-3.732-0.868-5.62
	c0.294-0.737,0.628-1.075,1.132-1.584c0.657-0.662,1.888-1.109,2.91-1.166c0.234-0.014,0.32-0.075,0.573-0.044
	c0.211,0.026,0.367,0.045,0.669,0.045c-0.326-0.284-1.171-0.295-1.596-0.295c-2.066,0-4.132,1.504-4.854,3.296
	c-0.835,2.076-0.631,4.722,0.88,6.224C297.668,68.719,298.992,69.46,300.503,69.46z M299.026,84.69h3.604V70.759h-3.604V84.69z
	 M335.596,72.824v-2.066h-3.722v13.754c0,0.136,0.042,0.177,0.178,0.177c4.101,0,3.546,0.267,3.545-0.827v-7.024
	c0-1.357-0.231-1.939,0.345-2.667c0.149-0.189,0.337-0.344,0.542-0.461c0.565-0.323,1.649-0.422,2.036,0.503
	c0.39,0.934-0.668,0.736,3.28,0.736c0.16,0,0.163-0.028,0.296-0.059c0-0.368-0.061-0.46-0.061-0.825
	c-0.002-1.226,0.152-1.564-0.318-2.339c-0.783-1.29-2.712-1.574-4.07-0.986c-0.399,0.173-0.518,0.277-0.835,0.523
	c-0.282,0.219-0.439,0.421-0.659,0.7c-0.132,0.167-0.174,0.233-0.287,0.421L335.596,72.824z M305.052,74.419
	c0,2.684,0.697,3.565,3.581,4.509c0.741,0.243,2.622,0.954,2.622,1.807c0,0.758-0.062,1.224-0.943,1.655
	c-0.233,0.114-0.491,0.195-0.803,0.26c-2.322,0.487-4.438-0.838-4.753-0.911v2.538c0.598,0.139,1.36,0.649,2.954,0.649
	c1.854,0,4.234,0.087,5.54-1.135c1.044-0.977,1.372-2.04,1.372-3.587c0-0.639-0.11-1.264-0.293-1.714
	c-0.179-0.442-0.51-0.918-0.843-1.224c-1.737-1.6-5.17-1.346-5.468-2.805c-0.136-0.67,0.124-1.066,0.579-1.34
	c1.133-0.685,3.086-0.373,4.26,0.05c0.244,0.088,0.54,0.251,0.76,0.303V71.29c-1.472-0.984-4.782-1.019-6.46-0.198
	c-0.2,0.097-0.541,0.299-0.698,0.424C305.591,72.212,305.052,73.218,305.052,74.419z M266.827,70.995h-1.773v2.125h1.595v7.084
	c0,2.313,1.23,4.604,3.781,4.604c1.299,0,2.542,0.002,3.664-0.59v-2.184c-0.829,0.069-3.604,1.552-3.604-1.948V73.12h3.604v-2.125
	h-3.604v-4.546h-2.482C267.999,66.875,266.835,70.627,266.827,70.995z M316.159,76.957c0,1.985-0.098,3.732,1.098,5.455
	c0.118,0.17,0.226,0.323,0.363,0.464l0.376,0.391c0.009,0.009,0.022,0.02,0.031,0.029c1.644,1.527,3.593,1.689,5.753,1.689
	c0.903,0,1.788-0.124,2.529-0.306c0.387-0.096,0.704-0.207,1.066-0.352l0.953-0.464v-2.361c-0.541,0.286-1.259,0.52-1.896,0.702
	c-1.328,0.379-3.343,0.624-4.652-0.004C320.563,81.616,320,80.085,320,78.61c0-0.225,2.06-0.118,2.304-0.118l6.62,0.003
	c0.594,0.009,0.469,0.166,0.469-1.539c0-1.979-0.867-4.345-2.563-5.466c-0.409-0.27-0.594-0.377-1.083-0.572
	c-2.482-0.989-5.821-0.592-7.713,1.3C316.914,73.339,316.159,75.366,316.159,76.957z M325.672,76.485h-5.613
	c0-1.022,0.31-2.025,0.712-2.653c1.217-1.906,4.26-1.564,4.877,1.261c0.054,0.244,0.123,0.525,0.139,0.747
	C325.829,76.408,325.873,76.485,325.672,76.485z M236.282,76.721c0,1.969-0.16,2.973,0.583,4.789
	c0.086,0.213,0.136,0.328,0.256,0.512l0.664,0.93c0.112,0.144,0.27,0.307,0.406,0.421c1.685,1.416,3.307,1.612,5.713,1.612
	c1.62,0,2.877-0.299,4.117-0.905c0.301-0.147,0.43-0.155,0.437-0.567c0.012-0.661-0.005-1.346-0.005-2.012
	c-0.2,0.053-0.883,0.427-1.949,0.709c-1.351,0.357-1.838,0.354-3.191,0.354c-2.079,0-3.19-1.817-3.19-3.896
	c0-0.281,0.479-0.177,1.004-0.177h8.33l0.059-1.358c0-1.807-0.661-3.834-1.856-5.052l-0.093-0.085
	c-0.558-0.484-0.921-0.768-1.655-1.061c-1.752-0.698-3.952-0.708-5.723-0.051c-1.564,0.581-2.608,1.721-3.278,3.219
	C236.638,74.717,236.282,75.874,236.282,76.721z M240.182,76.249c0-1.612,0.88-3.601,2.895-3.601c0.818,0,1.615,0.426,2.07,1.06
	c0.541,0.756,0.766,1.813,0.766,2.777h-5.73V76.249z M253.239,71.467v2.362c0.562-0.132,1.826-1.004,4.136-1.004
	c0.732,0,1.594,0.318,1.934,0.724c0.515,0.616,0.37,1.229,0.37,2.287l-0.511-0.316c-0.221-0.11-0.33-0.161-0.589-0.237
	c-2.198-0.642-5.671,0.021-6.837,2.303c-0.87,1.704-0.634,4.754,0.596,6.058c0.899,0.953,1.846,1.224,3.324,1.224
	c0.999,0,1.78-0.155,2.5-0.454c0.606-0.252,1.038-0.636,1.398-1.14l0.178-0.236l0.112,1.305c0.014,0.203-0.031,0.347,0.183,0.347
	h3.25c0.136,0,0.177-0.041,0.177-0.177v-7.32c0-4.418-0.591-6.729-5.495-6.729C256.188,70.464,254.399,70.853,253.239,71.467z
	 M257.728,82.387c-0.719,0-1.474,0.049-2.068-0.589c-0.65-0.696-0.531-1.524-0.531-2.481c0-0.28,0.115-0.689,0.201-0.92
	c0.643-1.723,3.139-1.634,3.92-0.54C260.128,79.088,259.999,82.387,257.728,82.387z M221.867,84.69h3.722v-9.859
	c0-0.581,4.276-3.019,4.255,0.294l-0.001,8.916c-0.003,0.281-0.086,0.649,0.178,0.649h3.545c0.136,0,0.178-0.041,0.178-0.177v-9.386
	c0-2.581-0.715-4.664-3.604-4.664c-1.424,0-2.712,0.595-3.705,1.434l-0.844,0.868v-6.316h-3.722V84.69z M280.002,72.766
	c0-0.346-0.041-0.614-0.059-1.003c-0.012-0.241-0.068-0.789-0.118-1.003h-3.722v13.754c0,0.136,0.041,0.177,0.177,0.177h3.722
	v-9.977c0-0.317,1.204-1.02,1.677-1.157c1.293-0.375,2.379,0.032,2.563,1.408c0.066,0.492,0.027,7.6,0.013,9.077
	c-0.003,0.281-0.086,0.649,0.178,0.649h3.663v-9.622c0-0.251,0.619-0.85,0.841-1.049c0.859-0.772,2.809-0.82,3.279,0.414
	c0.157,0.411,0.192,0.915,0.192,1.343v8.914h3.722V74.183c0-0.552-0.152-1.093-0.319-1.511c-0.558-1.398-1.947-2.208-3.461-2.208
	c-1.017,0-2.123,0.277-2.767,0.659c-0.415,0.246-0.637,0.408-0.971,0.742c-0.237,0.237-0.61,0.722-0.693,1.078h-0.118
	c-0.013-0.575-0.814-1.509-1.181-1.772c-1.663-1.189-4.052-0.813-5.632,0.514C280.225,72.326,280.214,72.611,280.002,72.766z
	 M20.035,43.591h518.229c3.082,0,5.604,2.521,5.604,5.604v499.66c0,3.082-2.522,5.604-5.604,5.604H20.035
	c-3.082,0-5.603-2.521-5.603-5.604V49.195C14.432,46.112,16.953,43.591,20.035,43.591z"/>
<path fill="#2B2A29" d="M373.152,278.998c0.33,0,1.901,1.948,4.785,5.81l-8.527,48.36c-0.33,0-3.511-3.862-9.571-11.62l6.478-36.74
	C366.376,284.477,368.661,282.563,373.152,278.998 M389.398,219.811l-8.527,48.36c-0.058,0.33-2.349,2.278-6.834,5.81
	c-0.33,0-1.934-1.947-4.785-5.81l6.548-37.137L389.398,219.811z M248.827,321.548h37.136c0.45,0.066,1.923,2.013,4.389,5.81
	c-3.805,3.796-5.964,5.744-6.438,5.81h-37.136c-0.451-0.066-1.889-2.014-4.389-5.81
	C246.227,323.562,248.353,321.614,248.827,321.548z M249.013,276.687c3.237,3.169,4.87,4.951,4.855,5.414l-6.548,37.136
	c-0.147,0.462-2.409,2.245-6.764,5.414c-3.237-3.169-4.871-4.952-4.855-5.414l6.548-37.136
	C242.395,281.639,244.657,279.856,249.013,276.687z M257.772,268.567h37.929c1.332,1.617,2.645,3.532,3.993,5.81
	c-2.146,2.245-4.139,4.192-6.042,5.81h-37.929c-1.299-1.617-2.64-3.565-3.993-5.81C253.882,272.099,255.903,270.184,257.772,268.567
	z M310.973,223.706c3.243,3.136,4.838,4.951,4.822,5.414l-6.548,37.136c-0.141,0.429-2.376,2.245-6.731,5.414
	c-3.27-3.169-4.865-4.985-4.855-5.414l6.548-37.136C304.356,228.657,306.591,226.842,310.973,223.706z M267.517,215.552h37.136
	c0.45,0.066,1.922,2.014,4.389,5.81c-3.811,3.829-5.964,5.744-6.438,5.81h-37.136c-0.451-0.066-1.896-1.981-4.39-5.81
	C264.917,217.566,267.043,215.618,267.517,215.552z"/>
<text transform="matrix(1 0 0 1 397.3701 332.0854)" fill="#2B2A29" font-family="'Helvetica-Condensed'" font-size="60.137">˚C</text>
<text transform="matrix(1 0 0 1 105.7251 283.9292)" fill="#2B2A29" font-family="'HelveticaNeue-Medium'" font-size="16.871">ROOM TEMP</text>
<path fill="#2B2A29" d="M135.999,169.162c4.547,0.429,8.984,1.359,13.269,2.948c1.081,0.401,2.135,0.893,3.165,1.415
	c1.112,0.562,1.657,1.647,1.504,2.775c-0.163,1.211-0.916,2.125-2.096,2.337c-0.515,0.092-1.107-0.001-1.615-0.162
	c-1.294-0.411-2.561-0.905-3.838-1.37c-3.515-1.28-7.129-2.144-10.86-2.461c-4.341-0.371-8.641-0.08-12.889,0.912
	c-2.768,0.646-5.433,1.606-8.075,2.635c-0.421,0.165-0.848,0.32-1.283,0.442c-1.18,0.331-2.407-0.255-2.977-1.402
	c-0.612-1.233-0.426-2.66,0.646-3.29c1.278-0.752,2.641-1.392,4.03-1.913c4.184-1.57,8.533-2.446,12.979-2.864
	C130.739,168.904,133.267,168.913,135.999,169.162"/>
<path fill="#2B2A29" d="M132.063,180.023c4.826,0.013,9.515,0.76,13.986,2.645c0.724,0.305,1.435,0.659,2.106,1.067
	c0.915,0.556,1.386,1.418,1.308,2.495c-0.083,1.127-0.655,1.947-1.729,2.388c-0.627,0.258-1.25,0.219-1.864-0.01
	c-0.911-0.34-1.815-0.699-2.719-1.057c-2.973-1.175-6.055-1.796-9.248-1.997c-4.796-0.302-9.379,0.541-13.815,2.321
	c-0.637,0.256-1.28,0.501-1.929,0.726c-1.439,0.499-2.82-0.07-3.407-1.387c-0.642-1.44-0.239-2.856,1.194-3.541
	c1.642-0.785,3.329-1.516,5.061-2.072C124.591,180.452,128.295,179.987,132.063,180.023"/>
<path fill="#2B2A29" d="M142.272,193.55c1.433,0.685,1.836,2.1,1.194,3.54c-0.587,1.318-1.968,1.887-3.407,1.387
	c-0.376-0.13-4.217-1.653-7.908-1.712c-3.691,0.059-7.532,1.581-7.908,1.712c-1.439,0.5-2.82-0.069-3.407-1.387
	c-0.642-1.44-0.239-2.855,1.194-3.54c2.135-1.021,6.002-2.019,9.901-2.038C135.977,191.493,140.058,192.492,142.272,193.55"/>
</svg>
