<?xml version="1.0" encoding="utf-8"?>
<!-- Generator: Adobe Illustrator 20.0.0, SVG Export Plug-In . SVG Version: 6.00 Build 0)  -->
<svg version="1.1" id="Layer_1" xmlns="http://www.w3.org/2000/svg" xmlns:xlink="http://www.w3.org/1999/xlink" x="0px" y="0px"
	 viewBox="0 0 679.17 151.06" style="enable-background:new 0 0 679.17 151.06;" xml:space="preserve">
<path d="M328.4,82.04c0-1.96-0.23-3.47-0.33-5.67c-0.07-1.36-0.38-4.46-0.67-5.67h-21.03v77.7c0,0.77,0.23,1,1,1h21.03V93.04
	c0-1.79,6.8-5.76,9.48-6.54c7.3-2.12,13.44,0.18,14.48,7.95c0.37,2.78,0.15,42.94,0.08,51.28c-0.02,1.59-0.49,3.66,1,3.66h20.69
	V95.04c0-1.42,3.5-4.8,4.75-5.93c4.85-4.36,15.87-4.63,18.53,2.34c0.89,2.33,1.08,5.17,1.08,7.59v50.36h21.03V90.04
	c0-3.12-0.86-6.18-1.8-8.53c-3.16-7.9-11-12.47-19.56-12.47c-5.74,0-11.99,1.57-15.63,3.72c-2.34,1.39-3.6,2.3-5.48,4.19
	c-1.34,1.34-3.45,4.08-3.92,6.09h-0.67c-0.07-3.25-4.6-8.53-6.67-10.01c-9.39-6.72-22.89-4.6-31.82,2.9
	C329.67,79.55,329.6,81.16,328.4,82.04"/>
<path d="M0,149.4h21.03V93.71c0-3.28,24.15-17.06,24.03,1.66l-0.01,50.36c-0.01,1.59-0.49,3.66,1,3.66h20.03c0.77,0,1-0.23,1-1
	V95.37c0-14.58-4.04-26.34-20.36-26.34c-8.05,0-15.32,3.36-20.93,8.1l-4.77,4.9V46.35H0V149.4z"/>
<path d="M177.22,74.7v13.34c3.18-0.74,10.32-5.67,23.36-5.67c4.14,0,9,1.79,10.92,4.09c2.91,3.48,2.09,6.94,2.09,12.92l-2.89-1.78
	c-1.25-0.62-1.86-0.91-3.33-1.34c-12.41-3.62-32.04,0.12-38.62,13.01c-4.92,9.63-3.58,26.86,3.37,34.22
	c5.08,5.38,10.43,6.91,18.78,6.91c5.64,0,10.06-0.87,14.12-2.57c3.42-1.42,5.87-3.6,7.9-6.45l1.01-1.33l0.63,7.37
	c0.08,1.15-0.18,1.96,1.04,1.96h18.36c0.77,0,1-0.23,1-1v-41.35c0-24.96-3.34-38.02-31.04-38.02
	C193.88,69.03,183.77,71.23,177.22,74.7 M202.58,136.39c-4.06,0-8.32,0.27-11.69-3.33c-3.67-3.93-3-8.61-3-14.01
	c0-1.58,0.65-3.89,1.13-5.2c3.63-9.73,17.73-9.23,22.14-3.05C216.14,117.75,215.41,136.39,202.58,136.39z"/>
<path d="M81.43,104.38c0,11.13-0.9,16.8,3.29,27.06c0.49,1.21,0.77,1.86,1.45,2.89l3.75,5.26c0.63,0.81,1.52,1.73,2.29,2.38
	c9.52,7.99,18.68,9.1,32.28,9.1c9.15,0,16.25-1.69,23.26-5.11c1.7-0.83,2.43-0.87,2.47-3.2c0.07-3.74-0.03-7.61-0.03-11.37
	c-1.13,0.3-4.99,2.41-11.01,4c-7.63,2.02-10.38,2-18.03,2c-11.75,0-18.02-10.26-18.02-22.01c0-1.59,2.71-1,5.67-1h47.06l0.33-7.67
	c0-10.21-3.74-21.66-10.48-28.54l-0.52-0.48c-3.16-2.74-5.21-4.34-9.35-6c-9.89-3.95-22.32-4-32.33-0.29
	c-8.84,3.28-14.74,9.72-18.52,18.18C83.44,93.06,81.43,99.59,81.43,104.38 M103.46,101.71c0-9.11,4.97-20.34,16.35-20.34
	c4.62,0,9.12,2.41,11.69,5.99c3.06,4.27,4.33,10.24,4.33,15.68h-32.37L103.46,101.71L103.46,101.71z"/>
<path d="M532.66,105.71c0,11.21-0.55,21.08,6.2,30.82c0.67,0.96,1.28,1.83,2.05,2.62l2.13,2.21c0.05,0.05,0.12,0.11,0.17,0.16
	c9.29,8.63,20.29,9.54,32.5,9.54c5.1,0,10.09-0.7,14.29-1.73c2.18-0.54,3.97-1.17,6.02-1.99l5.39-2.62v-13.34
	c-3.06,1.62-7.12,2.94-10.72,3.97c-7.5,2.15-18.88,3.53-26.27-0.02c-6.89-3.3-10.07-11.95-10.07-20.29c0-1.27,11.64-0.67,13.02-0.67
	l37.4,0.02c3.36,0.05,2.65,0.94,2.65-8.69c0-11.18-4.9-24.55-14.48-30.88c-2.31-1.52-3.35-2.13-6.11-3.23
	c-14.02-5.59-32.89-3.34-43.57,7.34C536.92,85.27,532.66,96.72,532.66,105.71 M586.39,103.04h-31.71c0-5.78,1.76-11.44,4.02-14.99
	c6.88-10.77,24.06-8.84,27.55,7.12c0.3,1.38,0.69,2.97,0.78,4.22C587.28,102.61,587.53,103.04,586.39,103.04z"/>
<path d="M253.98,72.03h-10.01v12h9.01v40.02c0,13.07,6.95,26.01,21.36,26.01c7.34,0,14.36,0.01,20.69-3.34v-12.34
	c-4.68,0.39-20.36,8.77-20.36-11V84.04h20.36V72.03h-20.36V46.35h-14.02C260.6,48.76,254.03,69.95,253.98,72.03"/>
<path d="M469.91,91.37c0,15.16,3.94,20.14,20.23,25.47c4.18,1.37,14.81,5.39,14.81,10.21c0,4.28-0.35,6.91-5.33,9.35
	c-1.31,0.64-2.77,1.1-4.54,1.47c-13.12,2.75-25.07-4.74-26.85-5.15v14.34c3.38,0.79,7.68,3.67,16.69,3.67
	c10.47,0,23.91,0.49,31.29-6.41c5.9-5.52,7.75-11.52,7.75-20.26c0-3.61-0.62-7.14-1.66-9.68c-1.01-2.5-2.89-5.18-4.76-6.91
	c-9.82-9.04-29.21-7.61-30.89-15.84c-0.77-3.79,0.7-6.02,3.27-7.58c6.4-3.87,17.43-2.1,24.07,0.29c1.38,0.5,3.05,1.42,4.3,1.71V73.7
	c-8.32-5.57-27.02-5.76-36.5-1.12c-1.13,0.55-3.05,1.69-3.94,2.4C472.96,78.91,469.91,84.59,469.91,91.37"/>
<path d="M642.46,82.37V70.7h-21.03v77.7c0,0.77,0.23,1,1,1c23.16,0,20.03,1.51,20.03-4.67v-39.68c0-7.66-1.3-10.95,1.95-15.06
	c0.84-1.07,1.91-1.94,3.06-2.61c3.19-1.83,9.32-2.38,11.5,2.84c2.2,5.27-3.78,4.16,18.53,4.16c0.9,0,0.92-0.16,1.67-0.33
	c0-2.08-0.34-2.6-0.34-4.66c-0.01-6.93,0.86-8.84-1.79-13.21c-4.42-7.29-15.32-8.9-22.99-5.57c-2.25,0.98-2.93,1.56-4.72,2.95
	c-1.59,1.24-2.48,2.38-3.72,3.95c-0.75,0.95-0.99,1.32-1.62,2.38L642.46,82.37z"/>
<rect x="435.87" y="70.7" width="20.36" height="78.7"/>
<path d="M444.21,63.36c4.99,0,5.69,0.23,10.82-0.86c1.86-0.4,3.71-1.14,5.2-1.81c22.23-9.96,20.74-41.32,5.04-50.38
	c-1.98-1.14-5.96-2.98-9.04-2.98c0.89,1.21,15.69,6.68,15.69,21.68c0,10.21-6.25,19.92-14.23,23.8c-1.45,0.71-2.96,1.24-4.58,1.76
	c-1.84,0.6-3.28,0.61-5.41,0.94c-3.32,0.5-8.16-0.67-10.69-1.62c-3.18-1.21-5.56-2.76-7.73-4.95c-8.48-8.52-9.16-21.08-4.9-31.74
	c1.66-4.16,3.55-6.07,6.4-8.95c3.71-3.74,10.67-6.27,16.43-6.59c1.32-0.08,1.8-0.42,3.24-0.24c1.19,0.15,2.07,0.26,3.78,0.26
	c-1.84-1.6-6.61-1.67-9.01-1.67c-11.67,0-23.34,8.5-27.42,18.62c-4.72,11.72-3.57,26.67,4.97,35.16
	C428.2,59.17,435.68,63.36,444.21,63.36"/>
<path d="M435.87,37.94c0,5.83,3.02,10.16,8.75,11.01c6.53,0.97,11.74-5.26,11.06-8.27c0.86-6.47-3-11.22-8.58-11.82
	c-3.28-0.35-5.87,0.85-7.7,2.34C436.77,33.34,437.22,34.58,435.87,37.94"/>
<path d="M436.04,35.25c0.51-1.71,0.88-2.95,2.92-4.6c1.68-1.36,4.46-2.9,8.22-2.5c2.87,0.31,5.38,1.66,7.07,3.82
	c0.9,1.14,1.54,2.48,1.9,3.94c-0.77-5.7-6.63-12.27-5.52-19.83c0.18-1.24,0.81-2.39,0.93-3.74c-1.19,0.57-2.27,0.74-3.57,1.44
	c-5.94,3.18-9.77,8.05-11.39,14.63c-0.68,2.75-0.74,4.6-0.73,7.4C435.93,35.62,435.98,35.43,436.04,35.25z"/>
</svg>
